<svg xmlns="http://www.w3.org/2000/svg" viewBox="0 0 260 260" width="260" height="260"><!-- flock brand mark --><rect width="260" height="260" rx="58" fill="#C0E42A"/><ellipse cx="130" cy="216" rx="52" ry="9" fill="#7E9A12" opacity="0.35"><animate attributeName="rx" values="52;30;52" dur="0.9s" repeatCount="indefinite" calcMode="spline" keyTimes="0;0.5;1" keySplines="0.4 0 0.6 1;0.4 0 0.6 1"/><animate attributeName="opacity" values="0.35;0.14;0.35" dur="0.9s" repeatCount="indefinite"/></ellipse><g transform="translate(30 24) scale(1.0)"><g><animateTransform attributeName="transform" type="translate" values="0 6; 0 -34; 0 6" dur="0.9s" repeatCount="indefinite" calcMode="spline" keyTimes="0;0.5;1" keySplines="0.2 0 0.1 1;0.5 0 0.8 1"/><g transform-origin="100 176"><animateTransform attributeName="transform" type="scale" additive="sum" values="1 1; 1.06 0.9; 0.96 1.06; 1 1" keyTimes="0;0.12;0.55;1" dur="0.9s" repeatCount="indefinite"/><g>
<rect x="68" y="138" width="18" height="38" rx="9" fill="#111010"/>
<rect x="114" y="138" width="18" height="38" rx="9" fill="#111010"/>
<g fill="#FFFFFF"><circle cx="100" cy="88" r="47"/><circle cx="100.0" cy="50.3" r="27"/><circle cx="124.1" cy="57.5" r="27"/><circle cx="139.0" cy="76.3" r="27"/><circle cx="139.0" cy="99.7" r="27"/><circle cx="124.1" cy="118.5" r="27"/><circle cx="100.0" cy="125.7" r="27"/><circle cx="75.9" cy="118.5" r="27"/><circle cx="61.0" cy="99.7" r="27"/><circle cx="61.0" cy="76.3" r="27"/><circle cx="75.9" cy="57.5" r="27"/></g>
<path d="M79 94 C68 82 53 73 42 76 C33 79 35 93 49 101 C59 107 70 111 81 110 Z" fill="#111010"/>
<path d="M121 94 C132 82 147 73 158 76 C167 79 165 93 151 101 C141 107 130 111 119 110 Z" fill="#111010"/>
<ellipse cx="100" cy="102" rx="31" ry="37" fill="#111010"/>
</g></g></g></g></svg>